<?xml version="1.0" standalone="no"?>
<!DOCTYPE svg PUBLIC "-//W3C//DTD SVG 20010904//EN"
 "http://www.w3.org/TR/2001/REC-SVG-20010904/DTD/svg10.dtd">
<svg version="1.0" xmlns="http://www.w3.org/2000/svg"
 width="256.000000pt" height="256.000000pt" viewBox="0 0 256.000000 256.000000"
 preserveAspectRatio="xMidYMid meet">

<g transform="translate(0.000000,256.000000) scale(0.100000,-0.100000)"
fill="#000000" stroke="none">
<path d="M890 2050 c0 -6 41 -61 92 -123 50 -62 96 -118 101 -124 6 -8 -5 -36
-32 -84 -23 -39 -41 -77 -41 -84 0 -13 144 -200 198 -257 l26 -28 156 0 c179
0 170 -4 211 92 l24 58 148 0 147 0 -34 -67 c-19 -38 -44 -74 -55 -81 -12 -7
-21 -17 -21 -22 0 -15 -188 -300 -199 -300 -5 0 -20 15 -35 34 -14 19 -52 47
-83 63 -50 24 -70 28 -143 28 -166 -1 -260 -80 -290 -246 -22 -116 10 -260 72
-326 l20 -22 -37 -7 c-20 -3 -65 -4 -100 0 -169 17 -255 94 -254 226 1 66 14
104 56 164 51 72 178 143 305 170 26 6 27 7 14 49 -14 50 -20 50 -137 10 -92
-31 -117 -27 -171 26 -30 31 -38 46 -38 76 0 79 63 121 172 113 56 -4 60 -3
69 19 23 62 8 74 -95 75 -88 0 -164 -34 -202 -92 -38 -58 -45 -149 -15 -207
19 -39 66 -86 93 -96 8 -2 -4 -23 -35 -56 -27 -28 -60 -77 -75 -109 -24 -50
-27 -69 -27 -157 0 -92 2 -104 28 -148 54 -92 162 -145 312 -154 85 -5 109 -2
260 34 16 3 24 -5 40 -39 12 -25 38 -55 62 -72 35 -24 54 -30 115 -33 93 -5
102 1 93 62 -7 46 -8 47 -38 41 -39 -8 -99 9 -121 33 -17 19 -17 20 21 30 135
37 202 145 203 329 1 56 6 77 35 132 19 36 34 63 34 60 1 -3 -8 -34 -19 -70
-11 -36 -20 -65 -20 -65 0 -1 8 -1 19 -2 13 -1 21 9 30 40 50 176 139 434 169
489 28 52 41 68 61 70 13 2 26 8 28 13 2 6 -56 78 -128 160 -72 83 -167 194
-211 247 -55 66 -90 100 -112 107 -71 23 -646 41 -646 21z m867 -972 c-3 -8
-6 -5 -6 6 -1 11 2 17 5 13 3 -3 4 -12 1 -19z m-308 -57 c49 -35 66 -84 66
-191 0 -111 -19 -161 -74 -197 -47 -32 -135 -32 -182 0 -55 37 -74 86 -74 197
1 119 23 171 88 201 53 25 133 20 176 -10z m191 -22 c-7 -11 -14 -18 -17 -15
-3 3 0 12 7 21 18 21 23 19 10 -6z"/>
<path d="M1060 361 l-125 -37 -3 -33 c-3 -25 0 -32 10 -29 7 3 66 20 131 38
l117 34 0 33 c0 18 -1 33 -2 32 -2 0 -59 -17 -128 -38z"/>
</g>
</svg>
