<?xml version="1.0" standalone="no"?>
<!DOCTYPE svg PUBLIC "-//W3C//DTD SVG 20010904//EN"
 "http://www.w3.org/TR/2001/REC-SVG-20010904/DTD/svg10.dtd">
<svg version="1.0" xmlns="http://www.w3.org/2000/svg"
 width="500.000000pt" height="500.000000pt" viewBox="0 0 500.000000 500.000000"
 preserveAspectRatio="xMidYMid meet">

<g transform="translate(0.000000,500.000000) scale(0.100000,-0.100000)"
fill="#000000" stroke="none">
<path d="M2161 3251 c-10 -7 10 -38 88 -134 55 -69 101 -128 101 -130 0 -3
-18 -36 -40 -73 -22 -38 -40 -74 -40 -81 0 -16 195 -260 219 -273 23 -12 300
-14 318 -2 7 4 26 38 43 75 l32 67 144 0 144 0 -34 -67 c-19 -38 -44 -74 -55
-81 -12 -7 -21 -17 -21 -22 0 -5 -43 -75 -96 -155 l-96 -146 -41 44 c-67 71
-96 82 -217 82 -122 0 -164 -16 -224 -86 -50 -59 -70 -126 -70 -229 0 -103 14
-153 59 -219 l34 -51 -94 0 c-118 0 -188 23 -239 80 -114 126 -44 323 149 415
39 19 94 40 123 46 54 13 56 16 46 69 -7 31 -8 32 -47 26 -22 -4 -69 -18 -103
-32 l-63 -25 -39 20 c-49 25 -92 75 -92 107 0 38 27 82 63 101 23 12 52 17
103 16 l72 -2 7 36 c4 21 2 40 -5 47 -6 6 -45 11 -88 11 -64 0 -86 -5 -127
-26 -134 -68 -153 -237 -40 -337 l44 -39 -25 -24 c-43 -40 -91 -122 -109 -184
-22 -74 -16 -174 13 -230 74 -145 293 -208 514 -149 75 20 81 18 104 -29 13
-28 36 -52 68 -72 42 -25 58 -29 121 -30 40 0 76 3 79 6 3 3 2 25 -2 50 l-7
44 -62 5 c-47 4 -68 11 -85 27 l-22 22 30 11 c75 27 108 47 140 84 44 51 64
119 64 220 1 73 5 88 35 146 32 60 39 51 14 -18 -5 -13 -8 -33 -8 -45 1 -19 2
-20 6 -3 4 14 7 16 13 6 5 -8 23 36 49 121 68 219 101 310 138 386 29 59 41
73 62 75 14 2 26 8 26 15 0 7 -75 99 -167 205 -91 106 -181 212 -200 235 -48
61 -78 72 -225 82 -201 15 -467 21 -482 12z m538 -1020 c55 -39 65 -65 69
-176 4 -92 2 -109 -18 -150 -30 -61 -82 -89 -157 -83 -105 9 -148 70 -148 213
0 135 33 195 120 216 42 10 105 1 134 -20z m194 -26 c-3 -9 -8 -14 -10 -11 -3
3 -2 9 2 15 9 16 15 13 8 -4z m84 -27 c-3 -8 -6 -5 -6 6 -1 11 2 17 5 13 3 -3
4 -12 1 -19z"/>
<path d="M2365 1590 c-33 -10 -86 -26 -117 -35 -54 -15 -58 -19 -58 -46 0 -34
0 -34 71 -13 204 59 189 52 189 84 0 35 -4 35 -85 10z"/>
</g>
</svg>
