<?xml version="1.0" standalone="no"?>
<!DOCTYPE svg PUBLIC "-//W3C//DTD SVG 20010904//EN"
 "http://www.w3.org/TR/2001/REC-SVG-20010904/DTD/svg10.dtd">
<svg version="1.0" xmlns="http://www.w3.org/2000/svg"
 width="500.000000pt" height="500.000000pt" viewBox="0 0 500.000000 500.000000"
 preserveAspectRatio="xMidYMid meet">

<g transform="translate(0.000000,500.000000) scale(0.100000,-0.100000)"
fill="#000000" stroke="none">
<path d="M1746 4019 c-20 -16 -20 -17 22 -72 29 -37 64 -109 111 -223 107
-267 151 -379 151 -389 0 -6 -14 -38 -32 -72 l-33 -63 23 -42 c29 -55 368
-475 404 -502 16 -11 49 -21 83 -24 52 -4 58 -7 82 -43 33 -50 47 -50 40 1
l-5 40 151 0 150 0 -19 -22 c-95 -107 -126 -149 -120 -163 3 -10 11 -13 18 -9
7 5 96 63 198 129 102 67 222 145 267 174 l82 52 142 -51 c78 -27 145 -53 150
-55 14 -9 -2 -35 -21 -35 -22 0 -43 -24 -68 -80 -11 -25 -27 -54 -36 -65 -15
-19 -15 -18 -16 18 -1 109 -111 198 -209 168 -48 -14 -96 -66 -112 -122 -21
-70 21 -177 84 -210 36 -20 87 -28 118 -19 16 5 29 7 29 4 0 -6 -180 -274
-184 -274 -15 0 -164 68 -216 100 -120 71 -175 85 -340 85 -125 0 -154 -3
-211 -23 -118 -41 -201 -103 -269 -203 -69 -100 -96 -192 -106 -358 -13 -221
48 -421 165 -538 l41 -40 -62 -7 c-287 -30 -529 42 -639 188 -72 96 -93 263
-50 403 67 223 306 405 633 485 54 12 98 27 98 32 0 5 -10 45 -21 88 l-22 79
-41 -6 c-55 -9 -211 -59 -283 -91 -52 -23 -62 -25 -98 -14 -106 32 -205 116
-225 191 -20 72 1 142 60 199 58 57 105 72 220 71 79 0 109 -3 161 -17 13 -3
19 13 34 82 21 100 23 97 -70 113 -307 54 -548 -86 -588 -341 -26 -167 48
-328 188 -408 l54 -31 -70 -69 c-193 -193 -275 -444 -224 -685 38 -178 161
-313 357 -392 204 -83 521 -86 770 -7 44 14 81 24 82 22 2 -2 17 -33 33 -70
74 -159 220 -237 423 -225 132 7 134 8 125 71 -3 28 -11 72 -16 97 l-10 47
-82 -5 c-48 -3 -100 0 -125 6 -44 12 -112 64 -112 85 0 7 23 18 51 24 143 33
287 145 345 269 l29 63 -3 -181 c-3 -147 -1 -180 9 -177 9 3 20 47 31 124 36
241 101 408 199 506 76 76 132 94 251 78 105 -14 234 -48 410 -110 114 -40
140 -46 145 -34 3 8 4 16 2 18 -2 1 -94 58 -204 126 -110 68 -232 145 -270
170 -90 61 -220 126 -280 141 -26 7 -44 16 -42 23 2 6 37 117 76 246 40 129
83 260 96 290 13 30 26 67 29 83 4 15 10 27 15 27 4 0 108 -36 231 -80 123
-43 227 -77 232 -74 19 12 2 25 -95 72 -110 52 -219 120 -279 174 l-37 33 40
68 c38 64 42 67 78 67 20 0 46 6 56 14 18 13 18 14 0 42 -10 16 -57 73 -104
128 -47 54 -99 114 -114 132 l-28 33 62 93 c34 51 98 140 141 197 54 71 76
107 69 114 -12 12 0 21 -203 -150 -86 -73 -161 -133 -167 -133 -11 0 -181 194
-350 400 -57 69 -120 135 -140 148 -68 41 -228 52 -1211 85 -47 1 -69 -2 -84
-14z m1994 -1096 c-1 -5 -13 -32 -29 -61 l-27 -54 -36 40 c-20 22 -41 50 -48
61 -10 20 -9 21 65 21 41 0 75 -3 75 -7z m-292 -764 c-43 -140 -45 -145 -53
-137 -3 2 16 66 41 142 25 75 48 136 50 133 2 -2 -15 -64 -38 -138z m-82 -115
c-4 -9 -9 -15 -11 -12 -3 3 -3 13 1 22 4 9 9 15 11 12 3 -3 3 -13 -1 -22z
m-594 -17 c36 -15 128 -92 128 -107 0 -4 -13 -13 -30 -20 -16 -7 -45 -30 -64
-51 -100 -110 -26 -269 124 -269 l40 0 -6 -42 c-25 -185 -67 -264 -168 -315
-61 -31 -177 -42 -253 -24 -63 16 -135 69 -168 125 -97 165 -78 511 33 630 37
39 95 74 140 86 51 13 180 5 224 -13z"/>
<path d="M2290 772 c-8 -3 -116 -36 -240 -72 l-225 -67 -3 -61 c-2 -34 1 -62
6 -62 5 0 101 27 213 59 112 33 223 64 247 71 l42 11 0 64 c0 66 -4 72 -40 57z"/>
</g>
</svg>
