<?xml version="1.0" encoding="iso-8859-1"?>
<!-- Uploaded to: SVG Repo, www.svgrepo.com, Generator: SVG Repo Mixer Tools -->
<svg fill="#000000" height="800px" width="800px" version="1.1" id="Layer_1" xmlns="http://www.w3.org/2000/svg" xmlns:xlink="http://www.w3.org/1999/xlink" 
	 viewBox="0 0 512 512" xml:space="preserve">
<g>
	<g>
		<path d="M298.996,311.063h-8.284c-6.536,0-11.834,5.299-11.834,11.834s5.298,11.834,11.834,11.834h8.284
			c6.536,0,11.834-5.299,11.834-11.834S305.531,311.063,298.996,311.063z"/>
	</g>
</g>
<g>
	<g>
		<path d="M356.587,311.063h-22.878c-6.536,0-11.834,5.299-11.834,11.834s5.298,11.834,11.834,11.834h11.044v68.849
			c0,11.934-9.71,21.644-21.644,21.644H188.891c-11.934,0-21.644-9.71-21.644-21.644V334.73H256c6.536,0,11.834-5.299,11.834-11.834
			s-5.298-11.834-11.834-11.834H155.413c-6.536,0-11.834,5.299-11.834,11.834v80.683c0,24.985,20.327,45.312,45.312,45.312h134.219
			c24.985,0,45.312-20.327,45.312-45.312v-80.683C368.421,316.362,363.123,311.063,356.587,311.063z"/>
	</g>
</g>
<g>
	<g>
		<path d="M356.587,266.355H155.413c-6.536,0-11.834,5.299-11.834,11.834c0,6.535,5.298,11.834,11.834,11.834h201.174
			c6.536,0,11.834-5.299,11.834-11.834C368.421,271.654,363.123,266.355,356.587,266.355z"/>
	</g>
</g>
<g>
	<g>
		<path d="M356.587,229.078H155.413c-6.536,0-11.834,5.299-11.834,11.834s5.298,11.834,11.834,11.834h201.174
			c6.536,0,11.834-5.299,11.834-11.834S363.123,229.078,356.587,229.078z"/>
	</g>
</g>
<g>
	<g>
		<path d="M500.166,293.572h-17.037c-4.087-13.514-11.966-25.717-22.794-35.062c-10.575-9.127-23.446-15.045-37.101-17.231v-21.881
			c0-44.661-17.393-86.658-48.979-118.257c-28.78-28.779-66.205-45.769-106.422-48.562V31.454c0-6.535-5.298-11.834-11.834-11.834
			s-11.834,5.299-11.834,11.834v21.133c-86.712,6.092-155.401,78.576-155.401,166.811v21.881
			c-13.654,2.185-26.527,8.104-37.101,17.231c-10.826,9.344-18.703,21.542-22.792,35.062H11.834C5.298,293.572,0,298.871,0,305.406
			s5.298,11.834,11.834,11.834h13.845v89.096c0,26.075,21.213,47.288,47.288,47.288h16.048
			c2.317,21.754,20.774,38.756,43.133,38.756h247.704c22.358,0,40.815-17.002,43.133-38.756h16.048
			c26.075,0,47.288-21.213,47.288-47.288V317.24h13.846c6.536,0,11.834-5.299,11.834-11.834S506.702,293.572,500.166,293.572z
			 M88.765,429.956H72.967c-13.024,0-23.62-10.596-23.62-23.62V317.24h39.418V429.956z M88.765,293.572h-34.59
			c6.62-14.012,19.443-24.515,34.59-28.175V293.572z M302.945,148.81v1.964c0,18.055-14.689,32.744-32.744,32.744h-28.401
			c-18.055,0-32.744-14.689-32.744-32.744v-1.964H302.945z M399.567,252.154V441.79v7.207c0,10.872-8.845,19.715-19.715,19.715
			H132.148c-10.871,0-19.715-8.845-19.715-19.715v-7.207V252.154v-32.756c0-75.179,58.086-137.039,131.734-143.076v48.82h-46.945
			c-6.536,0-11.834,5.299-11.834,11.834v13.798c0,31.105,25.307,56.412,56.412,56.412h28.401c31.105,0,56.412-25.307,56.412-56.412
			v-13.798c0-6.535-5.298-11.834-11.834-11.834h-46.945V76.317c33.89,2.747,65.38,17.254,89.685,41.558
			c27.116,27.128,42.049,63.183,42.049,101.523V252.154z M423.235,265.397c15.152,3.66,27.976,14.165,34.592,28.175h-34.592V265.397
			z M462.653,406.336c0,13.024-10.596,23.62-23.62,23.62h-15.798V317.24h39.418V406.336z"/>
	</g>
</g>
</svg>