<?xml version="1.0" encoding="iso-8859-1"?>
<!-- Uploaded to: SVG Repo, www.svgrepo.com, Generator: SVG Repo Mixer Tools -->
<svg fill="#000000" height="800px" width="800px" version="1.1" id="Layer_1" xmlns="http://www.w3.org/2000/svg" xmlns:xlink="http://www.w3.org/1999/xlink" 
	 viewBox="0 0 512 512" xml:space="preserve">
<g>
	<g>
		<path d="M449.536,263.837l-6.147-135.836H104.491V60.082H73.144v67.918H11.143L0.063,372.844l-0.004,0.107
			c-0.807,20.974,6.685,40.773,21.095,55.748c14.41,14.973,33.906,23.22,54.896,23.22c0.002,0,302.476-0.046,302.476-0.046
			c20.977,0,40.461-8.242,54.863-23.208c10.603-11.017,17.441-24.652,19.998-39.44H512V263.837H449.536z M41.105,159.347h372.324
			l1.419,31.347H39.686L41.105,159.347z M410.802,406.929c-8.438,8.769-19.9,13.597-32.279,13.597L76.05,420.571
			c-12.388,0-23.862-4.834-32.308-13.61c-8.435-8.767-12.824-20.398-12.361-32.762l6.886-152.159h377.998l6.886,152.159
			C423.614,386.551,419.229,398.172,410.802,406.929z M480.654,357.878h-26.862l-2.837-62.694h29.699V357.878z"/>
	</g>
</g>
</svg>