<?xml version="1.0" encoding="iso-8859-1"?>
<!-- Uploaded to: SVG Repo, www.svgrepo.com, Generator: SVG Repo Mixer Tools -->
<svg fill="#000000" height="800px" width="800px" version="1.1" id="Layer_1" xmlns="http://www.w3.org/2000/svg" xmlns:xlink="http://www.w3.org/1999/xlink" 
	 viewBox="0 0 512 512" xml:space="preserve">
<g>
	<g>
		<path d="M439.652,233.739h-50.087v-16.696c0-9.22-7.475-16.696-16.696-16.696h-16.696V116.87c0-2.648-0.71-5.36-1.762-7.466
			L304.325,9.229C301.496,3.573,295.716,0,289.391,0s-12.104,3.573-14.934,9.229l-50.087,100.174
			c-1.06,2.12-1.762,4.837-1.762,7.466v83.478h-33.391V16.696c0-9.22-7.475-16.696-16.696-16.696H72.348
			c-9.22,0-16.696,7.475-16.696,16.696v183.652H38.957c-9.22,0-16.696,7.475-16.696,16.696v211.478
			c0,46.03,37.448,83.478,83.478,83.478h200.348c40.313,0,74.042-28.725,81.799-66.783h53.158c26.851,0,48.696-21.845,48.696-48.696
			V283.826C489.739,256.208,467.27,233.739,439.652,233.739z M89.043,33.391h66.783v33.391H139.13
			c-9.22,0-16.696,7.475-16.696,16.696s7.475,16.696,16.696,16.696h16.696v33.391H139.13c-9.22,0-16.696,7.475-16.696,16.696
			s7.475,16.696,16.696,16.696h16.696v33.391H89.043V33.391z M306.087,445.217H105.739c-9.22,0-16.696-7.475-16.696-16.696
			s7.475-16.696,16.696-16.696h200.348c9.22,0,16.696,7.475,16.696,16.696S315.307,445.217,306.087,445.217z M322.783,200.348H256
			v-66.783h66.783V200.348z M456.348,396.522c0,8.439-6.865,15.304-15.304,15.304h-51.478V267.13h50.087
			c9.206,0,16.696,7.49,16.696,16.696V396.522z"/>
	</g>
</g>
</svg>