<?xml version="1.0" encoding="iso-8859-1"?>
<!-- Uploaded to: SVG Repo, www.svgrepo.com, Generator: SVG Repo Mixer Tools -->
<!DOCTYPE svg PUBLIC "-//W3C//DTD SVG 1.1//EN" "http://www.w3.org/Graphics/SVG/1.1/DTD/svg11.dtd">
<svg fill="#000000" version="1.1" id="Capa_1" xmlns="http://www.w3.org/2000/svg" xmlns:xlink="http://www.w3.org/1999/xlink" 
	 width="800px" height="800px" viewBox="0 0 28.797 28.798"
	 xml:space="preserve">
<g>
	<g>
		<path d="M1.985,0l2.039,2.366L4.022,2.368l0.589,0.68l22.188,25.75l0.014-25.102L1.985,0z M25.733,25.785l-1.234-1.43l0.732-0.635
			l-0.396-0.457l-0.731,0.635l-0.577-0.666l1.247-1.082l-0.396-0.455l-1.248,1.082l-0.427-0.494l0.851-0.738l-0.396-0.456
			l-0.85,0.737l-0.587-0.678l1.246-1.08l-0.396-0.457l-1.246,1.08l-0.429-0.493l0.852-0.737l-0.396-0.458L20.5,19.742l-0.541-0.626
			l1.246-1.081l-0.396-0.457l-1.247,1.08l-0.428-0.492l0.851-0.738l-0.396-0.455l-0.851,0.736l-0.589-0.678l1.247-1.081
			l-0.396-0.456l-1.246,1.08l-0.43-0.494l0.852-0.738l-0.396-0.455l-0.851,0.737l-0.529-0.608l0.021-0.02l-0.303-0.332l0.938-0.812
			l-0.396-0.458l-0.99,0.856l-0.426-0.494l0.59-0.513l-0.396-0.457l-0.59,0.512l-0.585-0.68l0.984-0.853l-0.396-0.457l-0.982,0.852
			l-0.427-0.495l0.585-0.507L13.637,10.7l-0.584,0.507l-0.576-0.667l1.097-0.952l-0.396-0.456l-1.095,0.949l-0.426-0.492
			l0.697-0.605l-0.395-0.458l-0.697,0.605l-0.585-0.68l1.091-0.945l-0.397-0.457l-1.088,0.945L9.856,7.5l0.693-0.601l-0.397-0.456
			L9.461,7.041l-0.54-0.628l1.085-0.94L9.61,5.017L8.526,5.956L8.101,5.461l0.685-0.594L8.392,4.41L7.705,5.003L7.119,4.322
			l1.08-0.935L7.803,2.933L6.726,3.866L6.299,3.372l0.682-0.59L6.584,2.326L5.905,2.914L4.67,1.48l21.074,3.136L25.733,25.785z"/>
		<path d="M22.747,7.453L12.226,5.886l10.516,12.205L22.747,7.453z M21.674,15.216L14.91,7.367l6.769,1.006L21.674,15.216z"/>
	</g>
</g>
</svg>