<?xml version="1.0" encoding="iso-8859-1"?>

<!DOCTYPE svg PUBLIC "-//W3C//DTD SVG 1.1//EN" "http://www.w3.org/Graphics/SVG/1.1/DTD/svg11.dtd">
<!-- Uploaded to: SVG Repo, www.svgrepo.com, Generator: SVG Repo Mixer Tools -->
<svg fill="#000000" version="1.1" xmlns="http://www.w3.org/2000/svg" xmlns:xlink="http://www.w3.org/1999/xlink"  width="800px"
	 height="800px" viewBox="0 0 21 28" xml:space="preserve">
<g id="tablet">
	<path d="M18.972,0H2.028C0.908,0,0,0.908,0,2.028v23.943C0,27.092,0.908,28,2.028,28h16.943C20.092,28,21,27.092,21,25.972V2.028
		C21,0.908,20.092,0,18.972,0z M10.492,1c0.271,0,0.492,0.221,0.492,0.492s-0.221,0.492-0.492,0.492S10,1.764,10,1.492
		S10.221,1,10.492,1z M10.527,25.99c-0.797,0-1.447-0.648-1.447-1.45s0.65-1.45,1.447-1.45c0.803,0,1.453,0.648,1.453,1.45
		S11.33,25.99,10.527,25.99z M18,22H3V4h15V22z"/>
</g>
<g id="Layer_1">
</g>
</svg>