<?xml version="1.0" encoding="utf-8"?>
<!-- Uploaded to: SVG Repo, www.svgrepo.com, Generator: SVG Repo Mixer Tools -->
<svg fill="#000000" height="800px" width="800px" version="1.1" id="Layer_1" xmlns="http://www.w3.org/2000/svg" xmlns:xlink="http://www.w3.org/1999/xlink" 
	 viewBox="0 0 64 64" enable-background="new 0 0 64 64" xml:space="preserve">
<g id="Simple-ruler">
	<path fill-rule="evenodd" clip-rule="evenodd" d="M60.7665977,25H3.2334008c-1.7832,0-3.2344,1.4008999-3.2344,3.1231003v7.7538986
		c0,1.7220993,1.4512,3.1230011,3.2344,3.1230011h57.5331955c1.7832184,0,3.2344017-1.4009018,3.2344017-3.1230011v-7.7538986
		C64.0009995,26.4008999,62.5498161,25,60.7665977,25z M62.0009995,35.8769989C62.0009995,36.4961014,61.4473,37,60.7665977,37
		H3.2334008c-0.6807001,0-1.2344-0.5038986-1.2344-1.1230011v-7.7538986c0-0.6191998,0.5537-1.1231003,1.2344-1.1231003H9.000001v3
		c0,0.5522995,0.4478149,1,1,1c0.5521994,0,1-0.4477005,1-1v-3H18v3c0,0.5522995,0.4478149,1,1,1c0.5522003,0,1-0.4477005,1-1v-3h7
		v3c0,0.5522995,0.4478149,1,1,1c0.5522003,0,1-0.4477005,1-1v-3h7v3c0,0.5522995,0.4478149,1,1,1c0.5522003,0,1-0.4477005,1-1v-3h7
		v3c0,0.5522995,0.4478149,1,1,1c0.5522003,0,1-0.4477005,1-1v-3h13.7665977c0.6807022,0,1.2344017,0.5039005,1.2344017,1.1231003
		V35.8769989z"/>
	<circle fill-rule="evenodd" clip-rule="evenodd" cx="56" cy="32" r="2"/>
</g>
</svg>