<?xml version="1.0" encoding="utf-8"?><!-- Uploaded to: SVG Repo, www.svgrepo.com, Generator: SVG Repo Mixer Tools -->
<svg width="800px" height="800px" viewBox="0 0 24 24" fill="none" xmlns="http://www.w3.org/2000/svg">
<path fill-rule="evenodd" clip-rule="evenodd" d="M12.8076 14.541H10.5924C9.94456 14.5813 9.44985 15.1503 9.48481 15.815V16.492H13.9162V15.815C13.9511 15.1499 13.4558 14.5808 12.8076 14.541Z" stroke="#000000" stroke-width="1.5" stroke-linecap="round" stroke-linejoin="round"/>
<path d="M9.48383 10.606C9.06962 10.606 8.73383 10.9418 8.73383 11.356C8.73383 11.7702 9.06962 12.106 9.48383 12.106V10.606ZM13.9162 12.106C14.3304 12.106 14.6662 11.7702 14.6662 11.356C14.6662 10.9418 14.3304 10.606 13.9162 10.606V12.106ZM14.6662 16.492C14.6662 16.0778 14.3304 15.742 13.9162 15.742C13.502 15.742 13.1662 16.0778 13.1662 16.492H14.6662ZM13.1662 19C13.1662 19.4142 13.502 19.75 13.9162 19.75C14.3304 19.75 14.6662 19.4142 14.6662 19H13.1662ZM8.73383 19C8.73383 19.4142 9.06962 19.75 9.48383 19.75C9.89804 19.75 10.2338 19.4142 10.2338 19H8.73383ZM10.2338 16.492C10.2338 16.0778 9.89804 15.742 9.48383 15.742C9.06962 15.742 8.73383 16.0778 8.73383 16.492H10.2338ZM13.6088 7.892C13.6088 8.30621 13.9446 8.642 14.3588 8.642C14.773 8.642 15.1088 8.30621 15.1088 7.892H13.6088ZM14.3588 7.8L13.6088 7.79147V7.8H14.3588ZM11.7 5L11.7113 4.25009C11.7038 4.24997 11.6962 4.24997 11.6887 4.25009L11.7 5ZM9.04118 7.8L9.79123 7.8L9.79113 7.79147L9.04118 7.8ZM8.29118 7.893C8.29118 8.30721 8.62697 8.643 9.04118 8.643C9.45539 8.643 9.79118 8.30721 9.79118 7.893H8.29118ZM14.1706 8.61873C14.5714 8.72325 14.981 8.48305 15.0855 8.08224C15.1901 7.68143 14.9499 7.27178 14.549 7.16727L14.1706 8.61873ZM13.7894 7.8L13.8404 7.05174C13.8234 7.05058 13.8064 7.05 13.7894 7.05V7.8ZM9.61058 7.8V7.05C9.59346 7.05 9.57635 7.05059 9.55927 7.05176L9.61058 7.8ZM8.85185 7.16729C8.45105 7.27185 8.21091 7.68153 8.31547 8.08233C8.42003 8.48313 8.82971 8.72327 9.23051 8.61871L8.85185 7.16729ZM14.5352 7.16379C14.1324 7.06694 13.7274 7.3149 13.6306 7.71764C13.5337 8.12037 13.7817 8.52536 14.1844 8.62221L14.5352 7.16379ZM16.5536 10.334L17.2978 10.2416C17.2972 10.2362 17.2964 10.2308 17.2957 10.2254L16.5536 10.334ZM16.575 10.685L15.825 10.6839V10.685H16.575ZM16.575 16.108L17.3246 16.1314C17.3249 16.1236 17.325 16.1158 17.325 16.108L16.575 16.108ZM13.5749 19L13.598 18.2504C13.5903 18.2501 13.5826 18.25 13.5749 18.25V19ZM9.82508 19V18.25C9.8174 18.25 9.80972 18.2501 9.80204 18.2504L9.82508 19ZM6.82501 16.108H6.07501C6.07501 16.1158 6.07513 16.1236 6.07537 16.1314L6.82501 16.108ZM6.82501 10.685L7.57501 10.685L7.575 10.6837L6.82501 10.685ZM6.84646 10.333L6.10435 10.2244C6.10357 10.2298 6.10284 10.2352 6.10217 10.2406L6.84646 10.333ZM9.21557 8.62121C9.6183 8.52436 9.86627 8.11937 9.76942 7.71664C9.67256 7.3139 9.26757 7.06594 8.86484 7.16279L9.21557 8.62121ZM9.48383 12.106H13.9162V10.606H9.48383V12.106ZM13.1662 16.492V19H14.6662V16.492H13.1662ZM10.2338 19V16.492H8.73383V19H10.2338ZM15.1088 7.892V7.8H13.6088V7.892H15.1088ZM15.1088 7.80853C15.1306 5.88805 13.6292 4.27909 11.7113 4.25009L11.6887 5.74991C12.745 5.76589 13.6217 6.66136 13.6089 7.79147L15.1088 7.80853ZM11.6887 4.25009C9.77081 4.27909 8.26938 5.88805 8.29123 7.80853L9.79113 7.79147C9.77827 6.66135 10.655 5.76589 11.7113 5.74991L11.6887 4.25009ZM8.29118 7.8V7.893H9.79118V7.8H8.29118ZM14.549 7.16727C14.3169 7.10672 14.0797 7.06804 13.8404 7.05174L13.7384 8.54826C13.8842 8.5582 14.0288 8.58177 14.1706 8.61873L14.549 7.16727ZM13.7894 7.05H9.61058V8.55H13.7894V7.05ZM9.55927 7.05176C9.32043 7.06814 9.08364 7.10682 8.85185 7.16729L9.23051 8.61871C9.37202 8.58179 9.5164 8.55822 9.66189 8.54824L9.55927 7.05176ZM14.1844 8.62221C15.0267 8.82476 15.6792 9.53878 15.8115 10.4426L17.2957 10.2254C17.0775 8.73421 15.9919 7.5141 14.5352 7.16379L14.1844 8.62221ZM15.8093 10.4264C15.8199 10.5118 15.8251 10.5978 15.825 10.6839L17.325 10.6861C17.3252 10.5375 17.3161 10.389 17.2978 10.2416L15.8093 10.4264ZM15.825 10.685V16.108H17.325V10.685H15.825ZM15.8254 16.0846C15.7863 17.3362 14.7728 18.2865 13.598 18.2504L13.5519 19.7496C15.59 19.8123 17.2608 18.1749 17.3246 16.1314L15.8254 16.0846ZM13.5749 18.25H9.82508V19.75H13.5749V18.25ZM9.80204 18.2504C8.62719 18.2865 7.61372 17.3362 7.57464 16.0846L6.07537 16.1314C6.13917 18.1749 7.81006 19.8123 9.84812 19.7496L9.80204 18.2504ZM7.57501 16.108V10.685H6.07501V16.108H7.57501ZM7.575 10.6837C7.57485 10.5973 7.58011 10.511 7.59074 10.4254L6.10217 10.2406C6.08382 10.3884 6.07475 10.5373 6.07501 10.6863L7.575 10.6837ZM7.58856 10.4416C7.72077 9.53778 8.37333 8.82376 9.21557 8.62121L8.86484 7.16279C7.40816 7.5131 6.3225 8.73321 6.10435 10.2244L7.58856 10.4416Z" fill="#000000"/>
</svg>