<?xml version="1.0" encoding="iso-8859-1"?>
<!-- Uploaded to: SVG Repo, www.svgrepo.com, Generator: SVG Repo Mixer Tools -->
<!DOCTYPE svg PUBLIC "-//W3C//DTD SVG 1.1//EN" "http://www.w3.org/Graphics/SVG/1.1/DTD/svg11.dtd">
<svg fill="#000000" height="800px" width="800px" version="1.1" id="Capa_1" xmlns="http://www.w3.org/2000/svg" xmlns:xlink="http://www.w3.org/1999/xlink" 
	 viewBox="0 0 465 465" xml:space="preserve">
<g>
	<path d="M232.5,389.5c-12.407,0-22.5,10.094-22.5,22.5s10.093,22.5,22.5,22.5S255,424.406,255,412S244.906,389.5,232.5,389.5z
		 M232.5,419.5c-4.136,0-7.5-3.364-7.5-7.5s3.364-7.5,7.5-7.5s7.5,3.364,7.5,7.5S236.635,419.5,232.5,419.5z"/>
	<path d="M371.908,0H93.092C76.151,0,62.368,13.782,62.368,30.724v403.553c0,16.941,13.783,30.724,30.724,30.724h278.816
		c16.941,0,30.724-13.782,30.724-30.724V30.724C402.632,13.782,388.849,0,371.908,0z M387.632,434.276
		c0,8.67-7.054,15.724-15.724,15.724H93.092c-8.67,0-15.724-7.054-15.724-15.724V30.724c0-8.67,7.054-15.724,15.724-15.724h278.816
		c8.67,0,15.724,7.054,15.724,15.724V434.276z"/>
	<path d="M355.132,40H109.868c-4.142,0-7.5,3.357-7.5,7.5V367c0,4.143,3.358,7.5,7.5,7.5h245.263c4.142,0,7.5-3.357,7.5-7.5V47.5
		C362.632,43.357,359.274,40,355.132,40z M347.632,359.5H117.368V55h230.263V359.5z"/>
</g>
</svg>