<?xml version="1.0" encoding="utf-8"?><!-- Uploaded to: SVG Repo, www.svgrepo.com, Generator: SVG Repo Mixer Tools -->
<svg fill="#000000" width="800px" height="800px" viewBox="-0.12 0 94.745 94.745" xmlns="http://www.w3.org/2000/svg">
  <path id="_chart01" data-name="
chart01" d="M622.732,660.868a5.137,5.137,0,0,1-1.2-.9c-.8-.908-1.13-1.994,0-2.888,2.848-2.244,5.084-5.118,7.855-7.453,3.838-3.243,7.485-6.713,11.246-10.051a2.828,2.828,0,0,0,1.122-2.328c-.062-2.514-.037-5.029-.119-7.543a16.353,16.353,0,0,0-.4-2.676c-.244-1.2-.291-1.24-1.623-1.25-2.315-.02-4.629-.006-6.942-.006,0-.034-.005-.069-.009-.1-3.209.175-6.421.355-9.631.518-1,.053-2.012.048-3.019.085q-8.29.3-16.58.611c-.6.023-1.207.03-1.81.063a2.043,2.043,0,0,1-2.164-1.3,2.854,2.854,0,0,1,.655-3.06,4.122,4.122,0,0,1,2.452-1.036c.6,0,1.209-.021,1.811-.064a.879.879,0,0,0,.927-.943c-.14-2.507-.232-5.017-.435-7.519-.305-3.8-.719-7.6-1.016-11.4-.164-2.109-.122-4.227-.275-6.333-.5-6.728-.5-13.462-.424-20.2.01-.878-.112-1.386-1.455-1.392a19.531,19.531,0,0,1-2.409-.043,8.533,8.533,0,0,1-2.326-.569,2.211,2.211,0,0,1-.558-3.564,3.225,3.225,0,0,1,2.437-1.014c1.4.037,2.809.119,4.213.188a14.718,14.718,0,0,0,2.4.1c4.392-.523,8.806-.716,13.216-1a36.039,36.039,0,0,0,5.1-.435,7.055,7.055,0,0,1,3-.028,31.955,31.955,0,0,0,5.394.461c1.6.112,3.2.3,4.8.432.8.066,1.6.115,2.41.115,4.625.01,9.252.035,13.879-.019,1.6-.021,3.2-.242,4.8-.383a57.478,57.478,0,0,1,6.886-.668c1.092.029,2.186-.3,3.287-.379a48.85,48.85,0,0,1,7.51-.355,49.192,49.192,0,0,0,6.561.14c2.148-.092,4.119.768,6.156,1.26.564.137.959,1.127.783,1.8a3.447,3.447,0,0,1-3.008,2.94c-.955.133-1,.35-.9,1.174.168,1.4.3,2.793.471,4.188.547,4.3.513,8.623.783,12.933.255,4.125.282,8.242.224,12.358-.07,4.724-.308,9.445-.486,14.168-.019.5-.113,1-.176,1.5-.192,1.462-.14,1.55,1.166,1.855a7.339,7.339,0,0,1,.889.158,3.378,3.378,0,0,1,1.795,1.533,2.209,2.209,0,0,1-.94,3.075,13.493,13.493,0,0,1-5.862.961,22.872,22.872,0,0,0-8.388.263,6.837,6.837,0,0,1-1.8.1c-2.415-.041-4.828-.09-7.241-.166-3.415-.109-6.833-.221-10.246-.382-2.508-.119-5.015-.308-7.519-.483-1.049-.073-1.371.215-1.364,1.417.014,3.722.051,7.445.085,11.17,0,.1.011.2.019.3a.972.972,0,0,0,.938.968c5.555-.042,10.966,1.2,16.454,1.77a13.079,13.079,0,0,1,2.344.549,3.422,3.422,0,0,1,1.037.57,1.694,1.694,0,0,1,.656,1.866,1.807,1.807,0,0,1-1.606,1.185,6.944,6.944,0,0,1-1.5-.049c-3.668-.551-7.333-1.125-11-1.682a5.294,5.294,0,0,0-.9-.029c-.093,0-.258.062-.264.109-.015.151-.025.387.06.444,1.589,1.057,3.217,2.057,4.791,3.137q4.473,3.073,8.894,6.229a7.156,7.156,0,0,1,1.464,1.484c1.045,1.358,1.035,1.793.117,3.244-.59.93-1.008,1.059-1.973.578a41.285,41.285,0,0,1-5.922-3.586c-4.383-3.2-8.8-6.36-13.211-9.53a1.027,1.027,0,0,0-.541-.215c-.154,0-.408.129-.439.247a5.052,5.052,0,0,0-.164,1.174c-.028,1.409-.033,2.817-.039,4.225a4.2,4.2,0,0,1-1.013,2.771,1.658,1.658,0,0,1-2.594-.173,4.188,4.188,0,0,1-.64-2.289q-.009-2.415-.057-4.829a.574.574,0,0,0-.832-.507,32.732,32.732,0,0,0-7.025,5.17,108.889,108.889,0,0,0-8.628,8.857,1.7,1.7,0,0,1-1.309.743A2.1,2.1,0,0,1,622.732,660.868Zm47.938-39.7a20.521,20.521,0,0,0,7.452-.058c4.773-1,4.25-.437,4.527-5.234.01-.2,0-.4,0-.6V603.212q0-5.881,0-11.762c0-.805.016-1.614-.047-2.415q-.578-7.354-1.189-14.7a4.779,4.779,0,0,0-.162-.886,1.107,1.107,0,0,0-1.018-.943c-.5-.025-1,0-1.508,0q-8.743.07-17.49.142c-.393,0-.786,0-1.179,0a19.443,19.443,0,0,0-5.409.481,6.04,6.04,0,0,1-1.689.131c-.139,0-.277,0-.413,0-2.11.006-4.234.131-6.331-.058a78.876,78.876,0,0,0-10.489-.148c-5.822.243-11.658.143-17.488.2-1.508.014-3.018.023-4.522.111a31.782,31.782,0,0,0-3.283.39c-1.107.181-1.24.341-1.238,1.31,0,.905.033,1.811.078,2.715.1,2,.291,4.006.305,6.012q.126,17.191.185,34.383c0,.706.006,1.409.038,2.11a.97.97,0,0,0,.946.963c3.314-.111,6.627-.257,9.94-.332,6.329-.145,12.646-.7,18.981-.51.593.018,1.181-.02,1.769-.059a15.5,15.5,0,0,1,2.128-.04c4.807.344,9.611.789,14.443.711,3.116-.048,6.232,0,9.35.026h.87A15.987,15.987,0,0,1,670.669,621.17Zm-46.627-8.658a2.247,2.247,0,0,1-1.638-1.183,10.2,10.2,0,0,1-1.137-4.33c-.445-6-.918-12.006-.8-18.036,0-.2,0-.4.01-.6.1-3.781.81-4.781,4.388-5.8a20.81,20.81,0,0,1,6.849-.74,2.035,2.035,0,0,1,2.078,2.121c.272,5.812.53,11.623.782,17.211,0,3.336.005,6.445,0,9.554a1.809,1.809,0,0,1-1.283,1.835,5.14,5.14,0,0,1-1.453.354c-.817.032-1.634.055-2.451.055A28.636,28.636,0,0,1,624.042,612.512Zm2.741-18.943a1.321,1.321,0,0,1,.84.744,1.233,1.233,0,0,1-.274,1.066c-.588.535-1.324.9-1.937,1.409a1.68,1.68,0,0,0-.549.966c-.058.419.239.721.7.8a3.039,3.039,0,0,1,.859.247,1.13,1.13,0,0,1,.394,1.769,17.77,17.77,0,0,0-1.26,1.265,1.683,1.683,0,0,0-.158,1.116c.036.261.305.5.5.724a1.311,1.311,0,0,1,.066,1.884,2.392,2.392,0,0,0-.441.776,1.687,1.687,0,0,0,1.764,2.367c.5.009,1-.01,1.5-.043a.761.761,0,0,0,.764-.764c.053-1.7.01-3.41.094-5.111.191-3.9.437-7.795.664-11.739,0-.861-.016-1.763,0-2.664.07-3.281.555-3.16-3.324-2.948a7.523,7.523,0,0,0-.887.17c-2.533.449-2.754.828-1.9,3.293a.421.421,0,0,0,.2.22.321.321,0,0,0,.255,0,9.929,9.929,0,0,1,1.08-.524,1.406,1.406,0,0,1,1.685.873,1.134,1.134,0,0,1-.547,1.268c-.521.287-1.089.494-1.617.771a1.51,1.51,0,0,0-.695.544,1.99,1.99,0,0,0-.157,1.133c.086.432.469.569.929.491a6.712,6.712,0,0,1,1.075-.14A1.757,1.757,0,0,1,626.783,593.569ZM659.5,610.788a2.024,2.024,0,0,1-.96-1.776c-.176-3.1-.365-6.195-.529-9.3-.037-.7-.008-1.4-.008-2.105h.034c0-2.307.009-4.612-.006-6.918a.952.952,0,0,0-.883-1.024c-.2-.029-.4-.036-.6-.077-1.648-.359-2.2-1.1-2.068-2.7a3.61,3.61,0,0,1,.976-2.152,38.8,38.8,0,0,1,7.063-6.485,9.464,9.464,0,0,1,1.047-.587,1.314,1.314,0,0,1,1.973.712,27.96,27.96,0,0,0,3.372,6,18.547,18.547,0,0,1,1.557,2.9,1.53,1.53,0,0,1-1.319,2.181,3.353,3.353,0,0,1-.616,0,3.565,3.565,0,0,0-.581,0c-.431.047-.771.3-.7.782a108.058,108.058,0,0,1,1.114,13.162c.042,1.695.4,3.38.494,5.078.166,3.158-.653,3.883-3.74,4.036q-.174.009-.346.008A10.791,10.791,0,0,1,659.5,610.788Zm4.192-2.776a3.161,3.161,0,0,0,.486.153c.059.007.135-.1.2-.153-.119-.08-.234-.211-.356-.22h-.006C663.92,607.791,663.809,607.93,663.7,608.012Zm-.342-4.9c-.17.094-.332.2-.492.31a1.036,1.036,0,0,0-.451,1.258c.067.2.5.492.595.44a4.8,4.8,0,0,0,1.051-.9c.1-.107.014-.372.014-.99a.5.5,0,0,0-.429-.2A.609.609,0,0,0,663.355,603.11Zm-.166-4.293c-.112.052-.179.2-.255.324a1.522,1.522,0,0,0,.412-.037c.122-.033.22-.158.326-.24a3.066,3.066,0,0,0-.374-.069A.24.24,0,0,0,663.189,598.817Zm-1.393-8.18a.861.861,0,0,0,.5.621,1.4,1.4,0,0,0,1.643-1.595c-.1-.166-.175-.43-.317-.481a.852.852,0,0,0-.284-.046C662.608,589.136,661.714,589.931,661.8,590.637Zm-12.367,21.014c-1.8-.1-3.6-.188-5.4-.361-.987-.1-1.955-.4-2.942-.544a2.449,2.449,0,0,1-2.181-2.5c-.127-1.6-.031-3.215-.031-4.823a32.079,32.079,0,0,1,.429-7.806,2.486,2.486,0,0,1,2.555-2.455c2.2-.22,4.4-.407,6.6-.549a2.241,2.241,0,0,1,2.629,1.926,6.774,6.774,0,0,1,.165,1.49c.075,2.916.129,5.832.188,8.748a17.572,17.572,0,0,0,.379,4.182,2.169,2.169,0,0,1-2.242,2.7Q649.505,611.655,649.429,611.651Zm-6.547-15.377a.88.88,0,0,0-.571.539,1.181,1.181,0,0,0,.089.853,1.6,1.6,0,0,0,.671.5c.354.181.749.283,1.091.478a1,1,0,0,1,.172,1.549c-.366.329-.809.576-1.2.887a.56.56,0,0,0,.1.966c.357.159.763.218,1.105.4A1.025,1.025,0,0,1,644.5,604a2.937,2.937,0,0,1-.754.479c-.385.164-.77.374-.754.811a12.076,12.076,0,0,0,.3,2.017c.025.123.316.274.482.27,1-.02,2-.045,2.985-.135a.991.991,0,0,0,.914-1.018c.153-3.093.305-6.187.391-9.284a1.1,1.1,0,0,0-.688-.812,17.327,17.327,0,0,0-2.39-.038v-.046c-.39,0-.782-.013-1.173-.013C643.5,596.236,643.188,596.244,642.882,596.274Z" transform="translate(-595.744 -566.483)"/>
</svg>