<?xml version="1.0" standalone="no"?>
<!DOCTYPE svg PUBLIC "-//W3C//DTD SVG 20010904//EN"
 "http://www.w3.org/TR/2001/REC-SVG-20010904/DTD/svg10.dtd">
<svg version="1.0" xmlns="http://www.w3.org/2000/svg"
 width="500.000000pt" height="500.000000pt" viewBox="0 0 500.000000 500.000000"
 preserveAspectRatio="xMidYMid meet">

<g transform="translate(0.000000,500.000000) scale(0.100000,-0.100000)"
fill="#000000" stroke="none">
<path d="M2425 3481 c-50 -22 -91 -69 -105 -119 -6 -22 -10 -167 -10 -354 l0
-317 -337 -3 c-365 -3 -368 -4 -420 -60 -29 -30 -53 -89 -53 -128 0 -39 24
-98 53 -128 52 -56 55 -57 420 -60 l337 -3 0 -317 c0 -187 4 -332 10 -354 21
-76 102 -138 180 -138 78 0 159 62 180 138 6 22 10 167 10 354 l0 317 338 3
c364 3 367 4 419 60 29 30 53 89 53 128 0 39 -24 98 -53 128 -52 56 -55 57
-419 60 l-337 3 -3 337 c-3 291 -5 341 -20 367 -50 91 -153 127 -243 86z"/>
</g>
</svg>
