<?xml version="1.0" standalone="no"?>
<!DOCTYPE svg PUBLIC "-//W3C//DTD SVG 20010904//EN"
 "http://www.w3.org/TR/2001/REC-SVG-20010904/DTD/svg10.dtd">
<svg version="1.0" xmlns="http://www.w3.org/2000/svg"
 width="500.000000pt" height="500.000000pt" viewBox="0 0 500.000000 500.000000"
 preserveAspectRatio="xMidYMid meet">

<g transform="translate(0.000000,500.000000) scale(0.100000,-0.100000)"
fill="#000000" stroke="none">
<path d="M1393 3962 c-184 -63 -318 -207 -368 -397 -23 -88 -23 -2040 0 -2130
52 -205 219 -367 422 -410 57 -12 236 -15 1059 -15 956 0 994 1 1068 20 178
45 316 171 386 350 l25 65 3 1022 c2 896 1 1031 -13 1090 -45 195 -186 348
-376 408 l-80 25 -1022 0 -1022 0 -82 -28z m1175 -477 c44 -19 78 -49 100 -90
15 -26 17 -76 20 -367 l3 -337 337 -3 c364 -3 367 -4 419 -60 29 -30 53 -89
53 -128 0 -39 -24 -98 -53 -128 -52 -56 -55 -57 -419 -60 l-338 -3 0 -317 c0
-187 -4 -332 -10 -354 -21 -76 -102 -138 -180 -138 -78 0 -159 62 -180 138 -6
22 -10 167 -10 354 l0 317 -337 3 c-365 3 -368 4 -420 60 -29 31 -53 90 -53
130 1 76 64 157 138 178 22 6 167 10 355 10 l317 0 0 318 c0 187 4 332 10 354
30 105 149 164 248 123z"/>
</g>
</svg>
